<svg xmlns="http://www.w3.org/2000/svg" xmlns:xlink="http://www.w3.org/1999/xlink" width="584.863" height="124.883" viewBox="0 0 438.647 90.412"  style="background-color: #eee;"><path stroke-width=".398" stroke-miterlimit="10" fill="none" stroke="#000" d="M0 .199h438.647M0 14.844V.398"/><symbol id="a"><path d="M.434.597c0 .016 0 .038-.028.038C.388.635.383.624.379.617L.365.584a.195.195 0 0 1-.129.051C.107.635 0 .497 0 .318 0 .135.11 0 .236 0c.117 0 .198.093.198.181 0 .031-.021.031-.033.031C.387.212.371.207.369.19.361.065.26.058.243.058.15.058.065.167.065.318c0 .151.086.259.177.259.054 0 .113-.043.127-.135C.372.42.381.414.401.414c.033 0 .033.018.033.038v.145z"/></symbol><symbol id="b"><path d="M.358.29c0 .076-.057.156-.192.156-.042 0-.139 0-.139-.069A.04.04 0 0 1 .068.335c.006 0 .039.002.04.044 0 .005.001.006.022.008a.457.457 0 0 0 .037.001c.023 0 .057 0 .09-.025C.293.335.293.307.293.278A.63.63 0 0 1 .114.252C.064.235 0 .199 0 .131 0 .06.063 0 .156 0 .188 0 .25.005.302.041.322.008.372.006.41.006c.024 0 .048 0 .048.029S.432.064.418.064a.16.16 0 0 0-.06.008V.29M.293.138c0-.023 0-.044-.041-.063C.217.058.17.058.167.058.108.058.065.09.065.131c0 .059.107.093.228.093V.138z"/></symbol><symbol id="c"><path d="M.191.379h.162c.014 0 .04 0 .04.029S.367.437.353.437H.191v.082c0 .018 0 .041-.032.041C.126.56.126.537.126.519V.437H.041C.027.437 0 .437 0 .408S.026.379.04.379h.086V.127C.126.034.19 0 .262 0c.054 0 .153.027.153.129 0 .02 0 .042-.033.042C.35.171.35.149.35.128.349.068.292.058.269.058c-.078 0-.078.05-.078.074v.247z"/></symbol><use xlink:href="#a" transform="matrix(11.9552 0 0 -11.9552 6.456 10.653)"/><use xlink:href="#b" transform="matrix(11.9552 0 0 -11.9552 12.804 10.582)"/><use xlink:href="#c" transform="matrix(11.9552 0 0 -11.9552 18.59 10.582)"/><path stroke-width=".398" stroke-miterlimit="10" fill="none" stroke="#000" d="M125.397 14.844V.398M438.647 14.844V.398M0 15.043h438.647M0 59.377V15.243"/><symbol id="d"><path d="M.403.293c0 .098-.046.144-.128.144A.175.175 0 0 1 .146.38c0 .037 0 .051-.04.051H.04c-.014 0-.04 0-.04-.029S.026.373.04.373h.041V.058H.04c-.014 0-.04 0-.04-.029S.026 0 .04 0h.147c.014 0 .04 0 .04.029S.201.058.187.058H.146v.181c0 .097.068.14.122.14.058 0 .07-.033.07-.09V.058H.297c-.014 0-.04 0-.04-.029S.283 0 .297 0h.147c.014 0 .04 0 .04.029S.458.058.444.058H.403v.235z"/></symbol><symbol id="e"><path d="M.22.567C.22.592.2.612.175.612A.045.045 0 0 1 .13.567C.13.542.15.522.175.522.2.522.22.542.22.567M.048.431c-.014 0-.04 0-.04-.029S.034.373.048.373h.107V.058H.041C.027.058 0 .058 0 .029S.027 0 .041 0h.278c.014 0 .04 0 .04.029S.333.058.319.058H.22V.39C.22.421.214.431.18.431H.048z"/></symbol><symbol id="f"><path d="M.454.303c0 .022 0 .134-.088.134A.117.117 0 0 1 .27.384C.264.399.242.437.194.437A.119.119 0 0 1 .11.399C.109.431.088.431.07.431H.04c-.014 0-.04 0-.04-.029S.023.373.054.373V.058C.022.058 0 .058 0 .029S.026 0 .04 0h.084c.014 0 .04 0 .04.029S.141.058.11.058v.184c0 .084.036.137.08.137.028 0 .036-.035.036-.082V.058c-.017 0-.044 0-.044-.029S.209 0 .223 0h.073c.014 0 .04 0 .04.029S.313.058.282.058v.184c0 .084.036.137.08.137C.39.379.398.344.398.297V.058c-.017 0-.044 0-.044-.029S.381 0 .395 0h.073c.014 0 .04 0 .04.029S.485.058.454.058v.245z"/></symbol><symbol id="g"><path d="M.227.57c0 .031-.006.041-.04.041H.04c-.014 0-.04 0-.04-.029S.026.553.04.553h.122V.058H.04c-.014 0-.04 0-.04-.029S.026 0 .04 0h.309c.014 0 .04 0 .04.029S.363.058.349.058H.227V.57z"/></symbol><use xlink:href="#b" transform="matrix(11.9552 0 0 -11.9552 6.647 40.37)"/><use xlink:href="#d" transform="matrix(11.9552 0 0 -11.9552 12.314 40.299)"/><use xlink:href="#e" transform="matrix(11.9552 0 0 -11.9552 19.272 40.299)"/><use xlink:href="#f" transform="matrix(11.9552 0 0 -11.9552 24.437 40.299)"/><use xlink:href="#b" transform="matrix(11.9552 0 0 -11.9552 31.275 40.37)"/><use xlink:href="#g" transform="matrix(11.9552 0 0 -11.9552 37.516 40.299)"/><path stroke-width=".398" stroke-miterlimit="10" fill="none" stroke="#000" d="M125.397 59.377V15.243"/><symbol id="h"><path d="M.281.589C.273.625.253.625.23.625.199.625.187.621.18.589L.056.058C.023.058 0 .058 0 .029S.027 0 .041 0h.096c.014 0 .041 0 .041.029S.154.058.123.058L.149.17h.162L.337.058c-.031 0-.055 0-.055-.029S.309 0 .323 0h.096C.433 0 .46 0 .46.029S.437.058.404.058L.281.589M.162.228c.007.03.062.266.067.314H.23C.233.519.247.458.247.457L.298.228H.162z"/></symbol><use xlink:href="#h" transform="matrix(11.9552 0 0 -11.9552 131.897 25.355)"/><use xlink:href="#d" transform="matrix(11.9552 0 0 -11.9552 137.91 25.355)"/><use xlink:href="#e" transform="matrix(11.9552 0 0 -11.9552 144.868 25.355)"/><use xlink:href="#f" transform="matrix(11.9552 0 0 -11.9552 150.033 25.355)"/><use xlink:href="#b" transform="matrix(11.9552 0 0 -11.9552 156.871 25.427)"/><use xlink:href="#g" transform="matrix(11.9552 0 0 -11.9552 163.112 25.355)"/><path stroke-width=".398" stroke-miterlimit="10" fill="none" stroke="#000" d="M186.767 29.689V15.243M125.596 29.888h313.051"/><symbol id="i"><path d="M.36.198c.021 0 .04 0 .04.037C.4.352.334.446.209.446.093.446 0 .346 0 .224 0 .098.101 0 .224 0 .353 0 .4.089.4.115.4.121.398.143.367.143.348.143.342.136.336.121.311.063.246.058.227.058a.163.163 0 0 0-.16.14H.36M.068.253c.013.085.078.135.141.135.1 0 .121-.085.125-.135H.068z"/></symbol><use xlink:href="#d" transform="matrix(11.9552 0 0 -11.9552 131.753 40.199)"/><use xlink:href="#b" transform="matrix(11.9552 0 0 -11.9552 138.4 40.27)"/><use xlink:href="#f" transform="matrix(11.9552 0 0 -11.9552 143.876 40.199)"/><use xlink:href="#i" transform="matrix(11.9552 0 0 -11.9552 150.714 40.27)"/><path stroke-width=".398" stroke-miterlimit="10" fill="none" stroke="#000" d="M186.767 44.533V30.087"/><symbol id="j"><path d="M.214.719c.014 0 .04 0 .04.029S.228.777.214.777H.04C.007.777 0 .768 0 .736V.041C0 .01.006 0 .04 0h.174c.014 0 .04 0 .04.029S.228.058.214.058H.065v.661h.149z"/></symbol><symbol id="k"><path d="M.254.736c0 .031-.006.041-.04.041H.04c-.014 0-.04 0-.04-.029S.026.719.04.719h.149V.058H.04c-.014 0-.04 0-.04-.029S.026 0 .04 0h.174c.033 0 .04.009.04.041v.695z"/></symbol><symbol id="l"><path d="M.382.115c0 .026-.025.026-.033.026C.326.141.322.133.317.119.295.064.246.058.222.058a.16.16 0 0 0-.157.164c0 .051.029.166.16.166A.528.528 0 0 0 .282.385C.289.383.29.382.29.377.293.336.324.335.33.335a.04.04 0 0 1 .041.042C.371.446.27.446.226.446.055.446 0 .306 0 .222 0 .1.093 0 .213 0c.134 0 .169.099.169.115z"/></symbol><symbol id="m"><path d="M.398.222c0 .125-.091.224-.199.224C.091.446 0 .347 0 .222 0 .096.092 0 .199 0c.107 0 .199.096.199.222M.199.058C.127.058.065.134.065.229c0 .093.064.159.134.159S.333.322.333.229C.333.133.271.058.199.058z"/></symbol><symbol id="n"><path d="M.349.408c0 .016 0 .038-.028.038-.024 0-.03-.023-.03-.024C.251.446.205.446.185.446.022.446 0 .363 0 .329 0 .288.024.26.058.241A.404.404 0 0 1 .201.205C.24.198.32.185.32.13.32.093.286.058.193.058.129.058.087.083.066.155.061.169.058.18.033.18 0 .18 0 .161 0 .141V.038C0 .022 0 0 .028 0 .04 0 .049 0 .064.041A.195.195 0 0 1 .193 0c.185 0 .185.12.185.13 0 .104-.124.125-.172.132C.118.277.058.287.058.329c0 .027.031.059.125.059.095 0 .099-.045.101-.071.002-.02.02-.023.032-.023.033 0 .033.018.033.038v.076z"/></symbol><symbol id="o"><path d="M.403.396c0 .031-.006.041-.04.041H.297c-.014 0-.04 0-.04-.029S.283.379.297.379h.041V.162C.338.08.27.058.225.058.146.058.146.094.146.125v.271c0 .031-.006.041-.04.041H.04c-.014 0-.04 0-.04-.029S.026.379.04.379h.041V.12c0-.092.06-.12.137-.12.061 0 .099.025.119.042 0-.036.024-.036.041-.036h.066c.014 0 .04 0 .04.029S.458.064.444.064H.403v.332z"/></symbol><symbol id="p"><path d="M.289.342c.08.024.125.077.125.133 0 .082-.083.16-.2.16s-.2-.078-.2-.16c0-.058.048-.11.125-.133C.038.31 0 .241 0 .185 0 .087.092 0 .214 0s.214.086.214.185C.428.24.391.31.289.342M.214.371C.135.371.079.42.079.474c0 .055.058.103.135.103.077 0 .135-.048.135-.103C.349.42.292.371.214.371m0-.313C.128.058.065.119.065.185c0 .071.067.128.149.128.084 0 .149-.06.149-.127C.363.116.298.058.214.058z"/></symbol><use xlink:href="#j" transform="matrix(11.9552 0 0 -11.9552 195.374 41.191)"/><use xlink:href="#k" transform="matrix(11.9552 0 0 -11.9552 199.38 41.191)"/><use xlink:href="#l" transform="matrix(11.9552 0 0 -11.9552 205.943 40.27)"/><use xlink:href="#m" transform="matrix(11.9552 0 0 -11.9552 211.908 40.27)"/><use xlink:href="#d" transform="matrix(11.9552 0 0 -11.9552 217.551 40.199)"/><use xlink:href="#n" transform="matrix(11.9552 0 0 -11.9552 224.377 40.27)"/><use xlink:href="#c" transform="matrix(11.9552 0 0 -11.9552 229.984 40.27)"/><use xlink:href="#o" transform="matrix(11.9552 0 0 -11.9552 242.167 40.27)"/><use xlink:href="#p" transform="matrix(11.9552 0 0 -11.9552 248.658 40.342)"/><path stroke-width=".398" stroke-miterlimit="10" fill="none" stroke="#000" d="M125.596 44.732h313.051"/><symbol id="q"><path d="M.399.601h.026c.014 0 .041 0 .041.029S.439.659.425.659h-.11C.301.659.274.659.274.63S.301.601.315.601H.34A6.105 6.105 0 0 1 .241.295H.24a.404.404 0 0 1-.019.06L.128.601h.023c.014 0 .041 0 .041.029S.165.659.151.659h-.11C.027.659 0 .659 0 .63S.027.601.041.601h.027l.14-.36.004-.013A.894.894 0 0 0 .171.111C.165.101.14.054.092.059c.001.003.004.009.004.02a.037.037 0 0 1-.039.039c-.025 0-.04-.017-.04-.04A.08.08 0 0 1 .099 0c.097 0 .14.129.143.137l.157.464z"/></symbol><symbol id="r"><path d="M.404.553h.022c.014 0 .04 0 .04.029S.441.611.426.611H.317c-.014 0-.041 0-.041-.029S.303.553.317.553h.022V.347H.127v.206h.022c.014 0 .041 0 .041.029S.163.611.149.611H.04c-.015 0-.04 0-.04-.029S.026.553.04.553h.022V.058H.04c-.014 0-.04 0-.04-.029S.025 0 .04 0h.109C.163 0 .19 0 .19.029S.163.058.149.058H.127v.231h.212V.058H.317c-.014 0-.041 0-.041-.029S.303 0 .317 0h.109c.015 0 .04 0 .04.029S.44.058.426.058H.404v.495z"/></symbol><use xlink:href="#n" transform="matrix(11.9552 0 0 -11.9552 132.423 55.115)"/><use xlink:href="#b" transform="matrix(11.9552 0 0 -11.9552 138.4 55.115)"/><use xlink:href="#q" transform="matrix(11.9552 0 0 -11.9552 144.187 57.769)"/><use xlink:href="#r" transform="matrix(11.9552 0 0 -11.9552 150.332 55.043)"/><use xlink:href="#i" transform="matrix(11.9552 0 0 -11.9552 156.871 55.115)"/><use xlink:href="#g" transform="matrix(11.9552 0 0 -11.9552 163.112 55.043)"/><use xlink:href="#g" transform="matrix(11.9552 0 0 -11.9552 169.269 55.043)"/><use xlink:href="#m" transform="matrix(11.9552 0 0 -11.9552 175.366 55.115)"/><path stroke-width=".398" stroke-miterlimit="10" fill="none" stroke="#000" d="M186.767 59.377V44.931"/><symbol id="s"><path d="M.359.278C.371.284.38.293.38.308.38.327.363.339.349.339.342.339.334.334.328.331L.217.262.22.401a.03.03 0 0 1-.03.03.03.03 0 0 1-.03-.03L.161.363A3.21 3.21 0 0 0 .163.262L.052.331C.046.334.038.339.031.339.017.339 0 .327 0 .308 0 .293.009.284.021.278L.137.216.021.153C.009.147 0 .138 0 .123 0 .104.017.092.031.092.038.092.046.097.052.1l.111.069L.162.105C.16.088.16.049.16.03a.03.03 0 0 1 .06 0L.217.169.316.108C.34.092.342.092.349.092.363.092.38.104.38.123.38.135.373.144.364.15.339.165.284.194.243.215l.116.063z"/></symbol><symbol id="t"><path d="M.205.373h.121c.014 0 .04 0 .04.029S.34.431.326.431H.205v.05c0 .078.07.078.102.078C.307.557.315.52.348.52c.016 0 .039.012.039.04 0 .057-.076.057-.091.057C.22.617.14.574.14.485V.431H.041C.027.431 0 .431 0 .402S.026.373.04.373h.1V.058H.045c-.014 0-.04 0-.04-.029S.031 0 .045 0H.3c.014 0 .04 0 .04.029S.314.058.3.058H.205v.315z"/></symbol><symbol id="u"><path d="M.258.026c0 .013-.007.017-.021.027a.4.4 0 0 0-.172.335c0 .095.032.239.172.336.014.01.021.014.021.027 0 .01-.005.026-.029.026C.204.777.13.719.084.654A.461.461 0 0 1 .082.125C.128.061.201 0 .229 0c.024 0 .029.017.029.026z"/></symbol><symbol id="v"><path d="M.113.374a.057.057 0 0 1-.056.057A.056.056 0 0 1 0 .374C0 .344.026.318.056.318c.033 0 .057.027.057.056m0-.318a.057.057 0 0 1-.056.057A.056.056 0 0 1 0 .056C0 .026.026 0 .056 0c.033 0 .057.027.057.056z"/></symbol><use xlink:href="#s" transform="matrix(11.9552 0 0 -11.9552 193.545 53.967)"/><use xlink:href="#l" transform="matrix(11.9552 0 0 -11.9552 199.786 55.115)"/><use xlink:href="#m" transform="matrix(11.9552 0 0 -11.9552 205.751 55.115)"/><use xlink:href="#d" transform="matrix(11.9552 0 0 -11.9552 211.394 55.043)"/><use xlink:href="#n" transform="matrix(11.9552 0 0 -11.9552 218.22 55.115)"/><use xlink:href="#c" transform="matrix(11.9552 0 0 -11.9552 223.827 55.115)"/><use xlink:href="#t" transform="matrix(11.9552 0 0 -11.9552 236.345 55.043)"/><use xlink:href="#d" transform="matrix(11.9552 0 0 -11.9552 242.167 55.043)"/><use xlink:href="#u" transform="matrix(11.9552 0 0 -11.9552 256.334 56.035)"/><use xlink:href="#b" transform="matrix(11.9552 0 0 -11.9552 261.128 55.115)"/><use xlink:href="#d" transform="matrix(11.9552 0 0 -11.9552 266.794 55.043)"/><use xlink:href="#e" transform="matrix(11.9552 0 0 -11.9552 273.752 55.043)"/><use xlink:href="#f" transform="matrix(11.9552 0 0 -11.9552 278.917 55.043)"/><use xlink:href="#b" transform="matrix(11.9552 0 0 -11.9552 285.755 55.115)"/><use xlink:href="#g" transform="matrix(11.9552 0 0 -11.9552 291.996 55.043)"/><use xlink:href="#v" transform="matrix(11.9552 0 0 -11.9552 299.803 55.043)"/><symbol id="w"><path d="M.258.388a.458.458 0 0 1-.091.276C.133.71.059.777.029.777.006.777 0 .76 0 .751 0 .739.007.734.025.722A.404.404 0 0 0 .193.389.401.401 0 0 0 .021.053C.008.044 0 .039 0 .026 0 .017.006 0 .029 0c.025 0 .099.058.145.123a.46.46 0 0 1 .084.265z"/></symbol><symbol id="x"><path d="M.401.378h.026c.014 0 .041 0 .041.029S.441.436.427.436h-.11c-.014 0-.041 0-.041-.029S.303.378.317.378h.025L.234.056.126.378h.025c.014 0 .041 0 .041.029S.165.436.151.436h-.11C.027.436 0 .436 0 .407S.027.378.041.378h.026L.182.034C.193 0 .215 0 .234 0c.019 0 .041 0 .052.034l.115.344z"/></symbol><symbol id="y"><path d="M.381.576c0 .031-.006.041-.04.041H.275c-.014 0-.04 0-.04-.029S.261.559.275.559h.041V.393a.169.169 0 0 1-.118.05C.092.443 0 .347 0 .221 0 .098.086 0 .189 0a.17.17 0 0 1 .127.061c0-.042 0-.055.04-.055h.066c.014 0 .04 0 .04.029S.436.064.422.064H.381v.512M.316.196C.316.14.27.058.195.058c-.072 0-.13.073-.13.163 0 .096.068.164.139.164A.116.116 0 0 0 .316.274V.196z"/></symbol><use xlink:href="#s" transform="matrix(11.9552 0 0 -11.9552 316.584 53.967)"/><use xlink:href="#l" transform="matrix(11.9552 0 0 -11.9552 322.825 55.115)"/><use xlink:href="#m" transform="matrix(11.9552 0 0 -11.9552 328.79 55.115)"/><use xlink:href="#d" transform="matrix(11.9552 0 0 -11.9552 334.433 55.043)"/><use xlink:href="#n" transform="matrix(11.9552 0 0 -11.9552 341.26 55.115)"/><use xlink:href="#c" transform="matrix(11.9552 0 0 -11.9552 346.866 55.115)"/><use xlink:href="#h" transform="matrix(11.9552 0 0 -11.9552 359.192 55.043)"/><use xlink:href="#d" transform="matrix(11.9552 0 0 -11.9552 365.206 55.043)"/><use xlink:href="#e" transform="matrix(11.9552 0 0 -11.9552 372.164 55.043)"/><use xlink:href="#f" transform="matrix(11.9552 0 0 -11.9552 377.328 55.043)"/><use xlink:href="#b" transform="matrix(11.9552 0 0 -11.9552 384.167 55.115)"/><use xlink:href="#g" transform="matrix(11.9552 0 0 -11.9552 390.407 55.043)"/><use xlink:href="#w" transform="matrix(11.9552 0 0 -11.9552 396.84 56.035)"/><use xlink:href="#x" transform="matrix(11.9552 0 0 -11.9552 408.4 55.103)"/><use xlink:href="#m" transform="matrix(11.9552 0 0 -11.9552 414.975 55.115)"/><use xlink:href="#e" transform="matrix(11.9552 0 0 -11.9552 421.419 55.043)"/><use xlink:href="#y" transform="matrix(11.9552 0 0 -11.9552 427.038 55.115)"/><path stroke-width=".398" stroke-miterlimit="10" fill="none" stroke="#000" d="M438.647 59.377V15.243M0 59.576h438.647M0 74.221V59.775"/><symbol id="z"><path d="M.181.189c0 .119.084.19.169.19L.366.378C.369.342.397.339.404.339c.023 0 .039.017.039.039 0 .043-.042.059-.092.059a.215.215 0 0 1-.17-.086V.39c0 .031-.006.041-.04.041H.04c-.014 0-.04 0-.04-.029S.026.373.04.373h.076V.058H.04c-.014 0-.04 0-.04-.029S.026 0 .04 0h.246c.014 0 .04 0 .04.029S.3.058.286.058H.181v.131z"/></symbol><use xlink:href="#t" transform="matrix(11.9552 0 0 -11.9552 6.48 69.888)"/><use xlink:href="#b" transform="matrix(11.9552 0 0 -11.9552 12.804 69.96)"/><use xlink:href="#x" transform="matrix(11.9552 0 0 -11.9552 18.567 69.948)"/><use xlink:href="#m" transform="matrix(11.9552 0 0 -11.9552 25.142 69.96)"/><use xlink:href="#z" transform="matrix(11.9552 0 0 -11.9552 31.024 69.888)"/><use xlink:href="#e" transform="matrix(11.9552 0 0 -11.9552 37.743 69.888)"/><use xlink:href="#c" transform="matrix(11.9552 0 0 -11.9552 43.218 69.96)"/><use xlink:href="#i" transform="matrix(11.9552 0 0 -11.9552 49.746 69.96)"/><path stroke-width=".398" stroke-miterlimit="10" fill="none" stroke="#000" d="M55.931 69.688h3.691"/><use xlink:href="#t" transform="matrix(11.9552 0 0 -11.9552 60.124 69.888)"/><use xlink:href="#m" transform="matrix(11.9552 0 0 -11.9552 66.472 69.96)"/><use xlink:href="#m" transform="matrix(11.9552 0 0 -11.9552 72.63 69.96)"/><use xlink:href="#y" transform="matrix(11.9552 0 0 -11.9552 78.535 69.96)"/><path stroke-width=".398" stroke-miterlimit="10" fill="none" stroke="#000" d="M84.968 69.688h3.691"/><symbol id="A"><path d="M.146.576c0 .031-.006.041-.04.041H.04c-.014 0-.04 0-.04-.029S.026.559.04.559h.041V.047c0-.018 0-.041.033-.041.032 0 .032.021.032.05A.153.153 0 0 1 .263 0c.106 0 .199.095.199.222 0 .123-.084.221-.188.221A.18.18 0 0 1 .146.389v.187m0-.304c0 .057.056.113.121.113.072 0 .13-.073.13-.163C.397.126.329.058.258.058.183.058.146.143.146.193v.079z"/></symbol><use xlink:href="#A" transform="matrix(11.9552 0 0 -11.9552 88.84 69.96)"/><use xlink:href="#z" transform="matrix(11.9552 0 0 -11.9552 95.235 69.888)"/><use xlink:href="#b" transform="matrix(11.9552 0 0 -11.9552 101.643 69.96)"/><use xlink:href="#d" transform="matrix(11.9552 0 0 -11.9552 107.31 69.888)"/><use xlink:href="#y" transform="matrix(11.9552 0 0 -11.9552 113.73 69.96)"/><path stroke-width=".398" stroke-miterlimit="10" fill="none" stroke="#000" d="M125.397 74.221V59.775"/><use xlink:href="#j" transform="matrix(11.9552 0 0 -11.9552 128.226 70.88)"/><use xlink:href="#k" transform="matrix(11.9552 0 0 -11.9552 132.231 70.88)"/><use xlink:href="#l" transform="matrix(11.9552 0 0 -11.9552 138.795 69.96)"/><use xlink:href="#m" transform="matrix(11.9552 0 0 -11.9552 144.76 69.96)"/><use xlink:href="#d" transform="matrix(11.9552 0 0 -11.9552 150.403 69.888)"/><use xlink:href="#n" transform="matrix(11.9552 0 0 -11.9552 157.23 69.96)"/><use xlink:href="#c" transform="matrix(11.9552 0 0 -11.9552 162.836 69.96)"/><use xlink:href="#o" transform="matrix(11.9552 0 0 -11.9552 175.019 69.96)"/><use xlink:href="#p" transform="matrix(11.9552 0 0 -11.9552 181.51 70.031)"/><path stroke-width=".398" stroke-miterlimit="10" fill="none" stroke="#000" d="M438.647 74.221V59.775M0 74.421h438.647M0 89.066V74.62"/><use xlink:href="#n" transform="matrix(11.9552 0 0 -11.9552 6.827 84.804)"/><use xlink:href="#b" transform="matrix(11.9552 0 0 -11.9552 12.804 84.804)"/><use xlink:href="#q" transform="matrix(11.9552 0 0 -11.9552 18.59 87.458)"/><use xlink:href="#r" transform="matrix(11.9552 0 0 -11.9552 24.736 84.732)"/><use xlink:href="#i" transform="matrix(11.9552 0 0 -11.9552 31.275 84.804)"/><use xlink:href="#g" transform="matrix(11.9552 0 0 -11.9552 37.516 84.732)"/><use xlink:href="#g" transform="matrix(11.9552 0 0 -11.9552 43.673 84.732)"/><use xlink:href="#m" transform="matrix(11.9552 0 0 -11.9552 49.77 84.804)"/><path stroke-width=".398" stroke-miterlimit="10" fill="none" stroke="#000" d="M125.397 89.066V74.62"/><use xlink:href="#t" transform="matrix(11.9552 0 0 -11.9552 126.098 84.732)"/><use xlink:href="#d" transform="matrix(11.9552 0 0 -11.9552 131.932 84.732)"/><use xlink:href="#u" transform="matrix(11.9552 0 0 -11.9552 146.1 85.724)"/><use xlink:href="#b" transform="matrix(11.9552 0 0 -11.9552 150.893 84.804)"/><use xlink:href="#d" transform="matrix(11.9552 0 0 -11.9552 156.56 84.732)"/><use xlink:href="#e" transform="matrix(11.9552 0 0 -11.9552 163.518 84.732)"/><use xlink:href="#f" transform="matrix(11.9552 0 0 -11.9552 168.67 84.732)"/><use xlink:href="#b" transform="matrix(11.9552 0 0 -11.9552 175.509 84.804)"/><use xlink:href="#g" transform="matrix(11.9552 0 0 -11.9552 181.75 84.732)"/><use xlink:href="#v" transform="matrix(11.9552 0 0 -11.9552 189.556 84.732)"/><use xlink:href="#s" transform="matrix(11.9552 0 0 -11.9552 206.372 83.656)"/><use xlink:href="#l" transform="matrix(11.9552 0 0 -11.9552 212.613 84.804)"/><use xlink:href="#m" transform="matrix(11.9552 0 0 -11.9552 218.578 84.804)"/><use xlink:href="#d" transform="matrix(11.9552 0 0 -11.9552 224.221 84.732)"/><use xlink:href="#n" transform="matrix(11.9552 0 0 -11.9552 231.048 84.804)"/><use xlink:href="#c" transform="matrix(11.9552 0 0 -11.9552 236.654 84.804)"/><use xlink:href="#h" transform="matrix(11.9552 0 0 -11.9552 248.98 84.732)"/><use xlink:href="#d" transform="matrix(11.9552 0 0 -11.9552 254.994 84.732)"/><use xlink:href="#e" transform="matrix(11.9552 0 0 -11.9552 261.952 84.732)"/><use xlink:href="#f" transform="matrix(11.9552 0 0 -11.9552 267.116 84.732)"/><use xlink:href="#b" transform="matrix(11.9552 0 0 -11.9552 273.955 84.804)"/><use xlink:href="#g" transform="matrix(11.9552 0 0 -11.9552 280.195 84.732)"/><use xlink:href="#w" transform="matrix(11.9552 0 0 -11.9552 286.627 85.724)"/><use xlink:href="#x" transform="matrix(11.9552 0 0 -11.9552 298.188 84.792)"/><use xlink:href="#m" transform="matrix(11.9552 0 0 -11.9552 304.763 84.804)"/><use xlink:href="#e" transform="matrix(11.9552 0 0 -11.9552 311.207 84.732)"/><use xlink:href="#y" transform="matrix(11.9552 0 0 -11.9552 316.826 84.804)"/><path stroke-width=".398" stroke-miterlimit="10" fill="none" stroke="#000" d="M438.647 89.066V74.62M0 89.265h438.647"/><path stroke-width=".797" stroke-miterlimit="10" fill="none" stroke="red" d="M192.378 51.766C152.048 88.309 107.48 97.928 56.34 81.489"/><path stroke-width=".63797448" stroke-linecap="round" stroke-linejoin="round" fill="none" stroke="red" d="M57.187 83.937c.114-.779-.885-2.325-1.215-2.567.409-.004 2.122-.678 2.483-1.378"/><path stroke-width=".797" stroke-miterlimit="10" fill="none" stroke="#0f0" d="M315.343 51.656c-93.5 47.36-180.37 42.596-267.542-14.31"/><path stroke-width=".63798086" stroke-linecap="round" stroke-linejoin="round" fill="none" stroke="#0f0" d="M47.97 39.93c.316-.721-.24-2.476-.494-2.797.396.104 2.226-.093 2.76-.673"/><path stroke-width=".797" stroke-miterlimit="10" fill="none" stroke="#00f" d="M205.091 81.244C143.165 97.105 91.84 82.742 47.635 37.548"/><path stroke-width=".6379617200000001" stroke-linecap="round" stroke-linejoin="round" fill="none" stroke="#00f" d="M47.24 40.108c.465-.636.302-2.47.123-2.838.364.188 2.194.391 2.84-.06"/></svg>